<?xml version="1.0" standalone="no"?>
<!DOCTYPE svg PUBLIC "-//W3C//DTD SVG 20010904//EN"
 "http://www.w3.org/TR/2001/REC-SVG-20010904/DTD/svg10.dtd">
<svg version="1.0" xmlns="http://www.w3.org/2000/svg"
 width="260.000000pt" height="260.000000pt" viewBox="0 0 260.000000 260.000000"
 preserveAspectRatio="xMidYMid meet">
<metadata>
Created by potrace 1.11, written by Peter Selinger 2001-2013
</metadata>
<g transform="translate(0.000000,260.000000) scale(0.100000,-0.100000)"
fill="#000000" stroke="none">
<path d="M0 1300 c0 -1033 3 -1300 13 -1300 6 0 200 188 430 418 l419 419 38
-11 c35 -9 42 -8 64 13 l24 23 29 -21 c16 -12 45 -24 65 -27 31 -5 41 -2 75
29 36 33 41 35 55 21 9 -9 29 -17 45 -17 27 -2 57 24 243 203 218 209 250 247
250 289 0 17 25 51 85 112 l85 86 0 71 c0 82 -4 87 -98 117 -46 15 -51 19 -40
33 7 8 194 198 415 421 222 223 403 409 403 413 0 5 -585 8 -1300 8 l-1300 0
0 -1300z m955 1053 l94 -98 1 -64 0 -64 -67 -71 c-37 -39 -70 -72 -75 -74 -4
-2 -8 8 -8 23 0 16 -4 24 -10 20 -7 -4 -8 -28 -4 -64 l6 -58 -70 -79 c-38 -44
-107 -115 -151 -159 l-81 -80 -163 55 c-141 48 -162 58 -165 78 -2 12 1 22 7
22 6 0 63 -18 127 -40 64 -22 121 -40 127 -40 26 0 -15 18 -146 65 l-142 50
-3 37 -3 38 146 -51 c80 -28 149 -48 152 -45 10 9 8 10 -162 66 -88 29 -162
55 -165 57 -7 7 -8 93 -1 93 7 0 283 -92 314 -105 9 -4 17 -3 17 3 0 6 -78 36
-172 68 -95 31 -179 61 -185 67 -8 5 -13 33 -13 66 0 55 2 58 50 106 l50 49
87 -28 c49 -16 94 -31 101 -33 6 -3 12 -1 12 4 0 5 -45 23 -100 41 -112 37
-115 37 -173 -28 -30 -32 -37 -48 -37 -81 0 -33 -3 -40 -18 -37 -12 2 -18 15
-20 42 -3 37 1 43 85 128 l88 88 195 1 c107 1 183 4 168 6 -16 2 -28 7 -28 11
0 3 23 30 52 59 l52 53 69 0 69 0 93 -97z m770 -626 l160 -54 3 -63 3 -63 -73
-74 c-40 -40 -76 -73 -80 -73 -3 0 -9 12 -11 28 -2 15 -5 -4 -6 -43 -1 -38 -7
-77 -14 -85 -7 -8 -107 -109 -223 -223 -201 -198 -212 -207 -237 -198 -20 8
-27 17 -27 38 0 21 20 48 87 115 48 48 84 91 79 95 -7 7 -102 -89 -232 -234
-50 -55 -53 -56 -85 -47 -31 9 -34 13 -37 54 -3 43 -3 44 110 157 62 62 108
113 102 113 -10 0 -187 -181 -270 -276 l-41 -47 -44 15 c-41 13 -44 17 -47 53
-3 37 1 42 130 172 73 73 126 133 117 133 -15 0 -249 -234 -280 -281 -16 -23
-18 -24 -60 -9 -41 14 -44 18 -47 54 -3 39 -2 40 275 317 152 154 273 279 268
279 -5 0 -44 -34 -85 -75 l-76 -76 -37 16 c-33 14 -37 19 -37 52 0 34 9 46 82
120 l83 83 148 0 148 0 42 40 c23 22 44 40 47 40 3 0 77 -24 165 -53z"/>
<path d="M522 2177 c-2 -61 -5 -71 -34 -102 l-33 -36 -89 31 c-94 31 -117 36
-101 21 12 -11 164 -61 186 -61 8 0 30 15 48 33 31 33 32 36 28 108 l-3 74 -2
-68z"/>
<path d="M2130 985 l-69 -65 -93 0 -93 0 -82 -82 c-72 -73 -82 -88 -85 -123
l-3 -40 -134 -46 c-78 -26 -139 -53 -147 -64 -16 -22 -18 -88 -4 -114 5 -10
32 -26 60 -35 50 -16 51 -16 135 13 47 17 85 27 86 23 1 -4 0 -20 -1 -35 -1
-15 3 -34 9 -41 9 -11 -4 -29 -59 -84 l-70 -70 0 -56 c0 -55 1 -58 33 -71 82
-34 80 -35 176 60 l89 87 96 -32 c53 -17 104 -29 114 -26 10 3 82 71 160 149
121 123 142 148 142 175 0 17 6 37 13 44 6 8 45 48 85 90 64 67 72 80 72 114
0 78 -16 106 -114 202 l-93 92 -77 0 -77 0 -69 -65z m302 -53 l98 -98 0 -55
c0 -53 -1 -55 -71 -126 -39 -40 -73 -73 -75 -73 -2 0 -4 9 -4 20 0 11 -4 20
-10 20 -6 0 -10 -29 -10 -68 l0 -67 -140 -140 -139 -139 -93 29 c-51 16 -95
30 -97 32 -2 2 3 11 13 22 17 18 18 18 67 0 27 -10 49 -15 49 -9 0 5 -18 15
-40 21 -22 7 -40 15 -40 19 0 3 18 24 40 45 22 21 40 44 40 49 0 6 -74 -63
-164 -153 l-164 -163 -43 14 c-41 13 -44 17 -47 53 -3 37 0 42 154 196 87 86
160 162 162 167 8 26 -31 19 -202 -37 l-184 -60 -47 15 -46 16 3 47 3 46 238
80 c130 44 246 86 257 93 13 8 20 23 20 42 0 40 -18 39 -22 -2 -3 -32 -14 -38
-189 -93 -16 -5 -19 -1 -19 27 0 28 13 45 82 115 l83 83 130 1 c71 1 120 4
108 6 -13 2 -23 8 -23 12 0 5 24 31 54 60 53 49 57 51 112 51 l58 0 98 -98z
m-552 -427 c-13 -14 -29 -25 -37 -25 -7 0 -13 -6 -13 -13 0 -19 -77 -90 -89
-83 -18 11 -13 71 7 89 19 17 114 55 141 56 10 1 7 -7 -9 -24z"/>
</g>
</svg>
